<svg xmlns="http://www.w3.org/2000/svg" width="16.866" height="16.877" viewBox="0 0 16.866 16.877">
    <path d="M3.336 16.877A3.329 3.329 0 0 1 0 13.556V6.027h4.9a4.258 4.258 0 0 0-.8 2.488 4.316 4.316 0 0 0 8.631 0 4.258 4.258 0 0 0-.8-2.488h4.927v7.529a3.329 3.329 0 0 1-3.336 3.32zM5.1 8.515a3.325 3.325 0 1 1 3.324 3.31A3.3 3.3 0 0 1 5.1 8.515zm.878 0a2.457 2.457 0 1 0 2.455-2.446 2.454 2.454 0 0 0-2.457 2.446zm2.446-4.3A4.3 4.3 0 0 0 5.347 5.5H0V3.32A3.324 3.324 0 0 1 1.41.61v3.576h.683V.239a3.2 3.2 0 0 1 .482-.151v4.1h.684V0h.472v4.186h.683V0h9.116a3.328 3.328 0 0 1 3.336 3.32V5.5H11.5a4.3 4.3 0 0 0-3.078-1.281zm4.046-2.3v1.84a.535.535 0 0 0 .53.533h1.8a.535.535 0 0 0 .535-.533V1.921a.534.534 0 0 0-.535-.532H13a.534.534 0 0 0-.532.532z" style="fill:#fff"/>
</svg>
