<svg xmlns="http://www.w3.org/2000/svg" width="20" height="20" viewBox="0 0 20 20">
    <path d="M20 5h-9.12L10 2H4a2.006 2.006 0 0 0-2 2v13a2.006 2.006 0 0 0 2 2h7l1 3h8a2.006 2.006 0 0 0 2-2V7a2.006 2.006 0 0 0-2-2zM7.17 14.59a4.09 4.09 0 0 1 0-8.18 3.949 3.949 0 0 1 2.74 1.07l.07.06-1.23 1.18-.06-.05a2.172 2.172 0 0 0-1.52-.59 2.42 2.42 0 0 0 0 4.84 2.049 2.049 0 0 0 2.12-1.46H7.08V9.91h3.95l.01.07a3.14 3.14 0 0 1 .05.61 3.791 3.791 0 0 1-3.92 4zm6.03-1.71a9.982 9.982 0 0 0 1.19 1.7l-.54.53-.65-2.23zm.77-.76h-.99l-.31-1.04h3.99a7.681 7.681 0 0 1-1.56 2.74 9.181 9.181 0 0 1-1.13-1.7zM21 20a1 1 0 0 1-1 1h-7l2-2-.81-2.77.92-.92L17.79 18l.73-.73-2.71-2.68a8.731 8.731 0 0 0 1.92-3.51H19v-1.04h-3.64V9h-1.04v1.04h-1.96L11.18 6H20a1 1 0 0 1 1 1z" transform="translate(-2 -2)" style="fill:#fff"/>
</svg>
