<svg xmlns="http://www.w3.org/2000/svg" width="14.331" height="16.874" viewBox="0 0 14.331 16.874">
    <path d="M2.006 16.874A2.03 2.03 0 0 1 0 14.827V9.654A2.031 2.031 0 0 1 2.006 7.6h10.317a2.031 2.031 0 0 1 2.007 2.049v5.173a2.03 2.03 0 0 1-2.007 2.047zM10.559 12v2.05c0 .886.45 1.415 1.2 1.415.829 0 1.249-.476 1.249-1.415v-.344h-.857v.318c0 .4-.018.64-.373.64-.336 0-.364-.3-.364-.64v-.863h1.596V12c0-.868-.421-1.346-1.186-1.346A1.251 1.251 0 0 0 10.559 12zm-6.218 2.591c0 .714.36.821.574.821a1.007 1.007 0 0 0 .492-.15 1.858 1.858 0 0 0 .48-.425v.5h.833v-4.57h-.833v3.473c-.1.133-.329.342-.49.342-.2 0-.222-.156-.222-.308v-3.507h-.834zm4.035.4a.954.954 0 0 0 .791.407c.491 0 .762-.357.762-1.005v-2.537c0-.523-.141-1.147-.814-1.147a1 1 0 0 0-.741.427v-2h-.841v6.2h.842v-.346zM1.471 10.04h.972v5.3h.939v-5.3h.971v-.9H1.471zm7.1 4.591a.717.717 0 0 1-.2-.16V11.62a.608.608 0 0 1 .172-.139.342.342 0 0 1 .435.075.587.587 0 0 1 .09.351v2.363a.524.524 0 0 1-.068.315.266.266 0 0 1-.221.1.452.452 0 0 1-.206-.054zm2.843-2.18v-.462c0-.315.064-.537.373-.537s.364.226.364.537v.462zM5.362 5.314V2.96a1.219 1.219 0 0 1 1.283-1.291A1.247 1.247 0 0 1 7.9 2.96v2.354A1.205 1.205 0 0 1 6.645 6.6a1.139 1.139 0 0 1-1.283-1.286zm.9-2.276v2.235c0 .273.153.455.382.455s.367-.179.367-.455V3.038c0-.3-.136-.458-.383-.458-.228 0-.365.171-.365.458zm2.385 2.686V1.708h.875V5.39c0 .16.027.324.233.324.169 0 .405-.221.515-.361V1.709h.875v4.8h-.875v-.53c-.375.453-.537.6-1.012.6-.405.003-.611-.286-.611-.855zm-4.387.788h-.985V3.871L2.1 0h.993l.679 2.6.635-2.6h1L4.261 3.871v2.64z" style="fill:#fff"/>
</svg>
